<svg width="46" height="48" viewBox="0 0 46 48" fill="none" xmlns="http://www.w3.org/2000/svg">
<path d="M3.06315 7.71008C4.1051 5.79984 5.56818 4.29082 7.43808 3.20166C9.32655 2.06204 11.4805 1.50732 13.8637 1.50732C16.2818 1.50732 18.4565 2.06014 20.3482 3.20166C22.2181 4.29083 23.6812 5.79986 24.7232 7.71008C25.7678 9.62526 26.279 11.764 26.279 14.0996V34.6668C26.279 35.5322 26.4848 36.2892 26.884 36.9646C27.3006 37.6697 27.8342 38.217 28.4896 38.6249C29.1764 39.0285 29.8932 39.2237 30.6593 39.2237C31.4286 39.2237 32.1205 39.027 32.7598 38.6312C33.4114 38.2278 33.9204 37.6898 34.297 36.9993L34.3066 36.9817L34.3168 36.9646C34.7158 36.2892 34.9216 35.5322 34.9216 34.6668V3.37394V2.21451H36.081H41.7385H42.8978V3.37394V33.9006C42.8978 36.2361 42.3866 38.3749 41.342 40.2901C40.3042 42.1925 38.8685 43.717 37.0449 44.846L37.0362 44.8513L37.0276 44.8564C35.1733 45.9602 33.0372 46.4929 30.6593 46.4929C28.2808 46.4929 26.1301 45.96 24.2422 44.8625L24.2284 44.8544L24.2148 44.846C22.3912 43.717 20.9553 42.1925 19.9177 40.2901C18.873 38.3749 18.3617 36.2361 18.3617 33.9006V13.3334C18.3617 12.4679 18.156 11.711 17.7569 11.0356C17.3456 10.3396 16.7985 9.79256 16.1026 9.38131C15.4201 8.97806 14.6814 8.77644 13.8637 8.77644C13.05 8.77644 12.3146 8.97603 11.6351 9.37526C10.9851 9.77983 10.4548 10.3216 10.0397 11.0183C9.6744 11.695 9.48351 12.4587 9.48351 13.3334V44.6262V45.7857H8.32408H2.66663H1.5072V44.6262V14.0996C1.5072 11.764 2.01851 9.62526 3.06315 7.71008ZM3.06315 7.71008L4.06248 8.25518" stroke="url(#paint0_linear_5_370)" stroke-width="2.31884"/>
<defs>
<linearGradient id="paint0_linear_5_370" x1="45.522" y1="0.427371" x2="0.095281" y2="48.3096" gradientUnits="userSpaceOnUse">
<stop stop-color="#BEF264"/>
<stop offset="1" stop-color="#89C324"/>
</linearGradient>
</defs>
</svg>
